HIERARCHY
ROOT Hips
{
	OFFSET 0.00000 0.00000 0.00000
	CHANNELS 6 Xposition Yposition Zposition Zrotation Yrotation Xrotation 
	JOINT LHipJoint
	{
		OFFSET 0 0 0
		CHANNELS 3 Zrotation Yrotation Xrotation
		JOINT LeftUpLeg
		{
			OFFSET 3.13874 -1.57224 1.49786
			CHANNELS 3 Zrotation Yrotation Xrotation
			JOINT LeftLeg
			{
				OFFSET 2.10955 -5.79594 0.00000
				CHANNELS 3 Zrotation Yrotation Xrotation
				JOINT LeftFoot
				{
					OFFSET 2.41843 -6.64458 0.00000
					CHANNELS 3 Zrotation Yrotation Xrotation
					JOINT LeftToeBase
					{
						OFFSET 0.04713 -0.12948 1.66229
						CHANNELS 3 Zrotation Yrotation Xrotation
						End Site
						{
							OFFSET 0.00000 -0.00000 0.85167
						}
					}
				}
			}
		}
	}
	JOINT RHipJoint
	{
		OFFSET 0 0 0
		CHANNELS 3 Zrotation Yrotation Xrotation
		JOINT RightUpLeg
		{
			OFFSET -3.13988 -1.57224 1.49786
			CHANNELS 3 Zrotation Yrotation Xrotation
			JOINT RightLeg
			{
				OFFSET -2.15006 -5.90725 0.00000
				CHANNELS 3 Zrotation Yrotation Xrotation
				JOINT RightFoot
				{
					OFFSET -2.34496 -6.44273 0.00000
					CHANNELS 3 Zrotation Yrotation Xrotation
					JOINT RightToeBase
					{
						OFFSET -0.08699 -0.23900 1.55223
						CHANNELS 3 Zrotation Yrotation Xrotation
						End Site
						{
							OFFSET -0.00000 -0.00000 0.80281
						}
					}
				}
			}
		}
	}
	JOINT LowerBack
	{
		OFFSET 0 0 0
		CHANNELS 3 Zrotation Yrotation Xrotation
		JOINT Spine
		{
			OFFSET 0.01292 1.96517 -0.16495
			CHANNELS 3 Zrotation Yrotation Xrotation
			JOINT Spine1
			{
				OFFSET 0.02122 1.88666 0.19706
				CHANNELS 3 Zrotation Yrotation Xrotation
				JOINT Neck
				{
					OFFSET 0 0 0
					CHANNELS 3 Zrotation Yrotation Xrotation
					JOINT Neck1
					{
						OFFSET -0.01683 1.81591 0.07903
						CHANNELS 3 Zrotation Yrotation Xrotation
						JOINT Head
						{
							OFFSET 0.00815 1.74013 -0.47700
							CHANNELS 3 Zrotation Yrotation Xrotation
							End Site
							{
								OFFSET -0.00204 1.83225 -0.16933
							}
						}
					}
				}
				JOINT LeftShoulder
				{
					OFFSET 0 0 0
					CHANNELS 3 Zrotation Yrotation Xrotation
					JOINT LeftArm
					{
						OFFSET 3.38482 1.41533 0.19802
						CHANNELS 3 Zrotation Yrotation Xrotation
						JOINT LeftForeArm
						{
							OFFSET 4.32712 -0.00000 0.00000
							CHANNELS 3 Zrotation Yrotation Xrotation
							JOINT LeftHand
							{
								OFFSET 3.28587 -0.00000 -0.00000
								CHANNELS 3 Zrotation Yrotation Xrotation
								JOINT LeftFingerBase
								{
									OFFSET 0 0 0
									CHANNELS 3 Zrotation Yrotation Xrotation
									JOINT LeftHandIndex1
									{
										OFFSET 0.43316 -0.00000 -0.00000
										CHANNELS 3 Zrotation Yrotation Xrotation
										End Site
										{
											OFFSET 0.34922 -0.00000 -0.00000
										}
									}
								}
								JOINT LThumb
								{
									OFFSET 0 0 0
									CHANNELS 3 Zrotation Yrotation Xrotation
									End Site
									{
										OFFSET 0.35456 -0.00000 0.35456
									}
								}
							}
						}
					}
				}
				JOINT RightShoulder
				{
					OFFSET 0 0 0
					CHANNELS 3 Zrotation Yrotation Xrotation
					JOINT RightArm
					{
						OFFSET -3.09725 1.62858 -0.14144
						CHANNELS 3 Zrotation Yrotation Xrotation
						JOINT RightForeArm
						{
							OFFSET -4.29104 -0.00000 0.00000
							CHANNELS 3 Zrotation Yrotation Xrotation
							JOINT RightHand
							{
								OFFSET -3.22720 -0.00000 -0.00000
								CHANNELS 3 Zrotation Yrotation Xrotation
								JOINT RightFingerBase
								{
									OFFSET 0 0 0
									CHANNELS 3 Zrotation Yrotation Xrotation
									JOINT RightHandIndex1
									{
										OFFSET -0.54362 -0.00000 -0.00000
										CHANNELS 3 Zrotation Yrotation Xrotation
										End Site
										{
											OFFSET -0.43828 -0.00000 -0.00000
										}
									}
								}
								JOINT RThumb
								{
									OFFSET 0 0 0
									CHANNELS 3 Zrotation Yrotation Xrotation
									End Site
									{
										OFFSET -0.44497 -0.00000 0.44497
									}
								}
							}
						}
					}
				}
			}
		}
	}
}
MOTION
Frames: 16
Frame Time: 0.0238095
0.00 0.00 0.00 0 0 0 0 0 0 -21 0 0 0 0 0 0 0 0 0 0 0 0 0 0 21 0 0 0 0 0 0 0 0 0 0 0 0 0 0 0 0 0 0 0 0 0 0 -16 0 0 21 0 0 11 0 0 0 -8 0 0 0 0 0 0 0 0 0 0 0 0 0 0 0 0 0 0 0 0 8 0 0 0 0 0 0 0 0 0 0 0 0 0 0 0 0 0
0.00 0.00 0.00 -175.1220 -10.2472 -174.4620 0.0000 0.0000 0.0000 -6.0921 -34.8956 -14.4134 1.0588 6.5424 18.3667 0.1501 2.0930 -8.4011 13.7507 -19.0367 -71.4416 0.0000 0.0000 0.0000 41.3141 22.0578 12.2877 -0.0536 1.4945 -4.1104 -4.2177 -17.8512 -47.5264 -1.2282 -7.0287 19.8005 3.6164 3.2758 7.1228 2.2880 4.5882 -9.5183 -0.2899 1.6530 -14.3960 3.7039 7.5308 -12.4178 0.9369 6.8276 37.9647 0.5536 2.3608 15.5523 -0.0000 -0.0000 0.0000 -68.9496 11.8960 -2.3146 153.5930 -37.6078 -110.8651 -0.0000 0.0000 -66.7062 27.5087 32.7010 15.7136 -7.1250 0.0000 -0.0000 -6.1555 65.7807 -3.0938 -0.0000 -0.0000 0.0000 62.3899 -23.1471 22.5427 -138.8947 48.7113 -100.7343 0.0000 -0.0000 -14.2155 -18.1824 -13.7040 4.4492 7.1250 -0.0000 -0.0000 8.4931 -44.2083 0.1672
0.00 0.00 0.00 -175.3690 -11.3348 -172.4080 0.0000 0.0000 0.0000 -4.5158 -37.3539 -14.1163 0.5600 4.7932 13.3196 0.0364 5.8259 -9.2741 14.0864 -19.1400 -72.4681 0.0000 0.0000 0.0000 40.4182 24.6711 11.3853 -0.1008 2.0476 -5.6372 -4.3208 -19.3238 -48.8676 -1.0585 -6.5415 18.3640 3.1797 2.9910 5.8283 1.7814 3.9365 -10.1801 -0.4232 1.3166 -14.3660 2.0337 6.9141 -11.6158 1.6523 4.9760 41.5388 0.7581 1.0007 17.1141 -0.0000 0.0000 0.0000 -67.4712 13.6896 -10.0426 147.3286 -43.0760 -106.8029 -0.0000 0.0000 -61.4537 24.3482 26.0724 11.2488 -7.1250 0.0000 -0.0000 -6.2480 58.1095 -2.0092 -0.0000 0.0000 0.0000 66.0002 -22.8882 16.8848 -141.9154 46.8932 -102.9727 0.0000 -0.0000 -43.2589 -20.3520 -1.5835 0.5873 7.1250 -0.0000 -0.0000 4.9872 -31.6443 1.6346
0.00 0.00 0.00 -174.8840 -12.1476 -171.5810 0.0000 0.0000 0.0000 -2.7975 -37.6569 -15.8801 0.5430 4.7211 13.1147 -0.0106 6.1799 -8.5267 13.9341 -19.0939 -72.0031 0.0000 0.0000 0.0000 41.2934 23.5624 11.9094 -0.2616 3.2908 -9.0893 -3.9997 -19.6948 -47.9316 -1.4875 -7.7051 21.8220 3.5506 2.8316 5.0291 1.5252 3.6678 -10.2977 -0.8285 1.1300 -13.9603 1.7526 6.8144 -11.7431 1.9123 4.3951 42.7565 0.8089 0.6136 17.8355 -0.0000 0.0000 0.0000 -72.9558 15.7488 -7.6512 130.5035 -52.7904 -94.2274 -0.0000 0.0000 -62.7992 23.4336 27.2684 11.2318 -7.1250 0.0000 -0.0000 -7.8172 59.1357 -2.7102 -0.0000 0.0000 0.0000 72.0718 -23.7299 19.2344 -120.0729 56.2905 -85.7196 0.0000 -0.0000 -63.0078 -15.8526 -6.2146 1.7607 7.1250 -0.0000 -0.0000 9.1441 -36.3067 1.9750
0.00 0.00 0.00 -174.1670 -12.8102 -171.2200 0.0000 0.0000 0.0000 -1.0414 -37.0166 -18.5955 0.6975 5.3388 14.8774 0.0293 5.3154 -8.4390 13.7592 -19.0394 -71.4676 0.0000 0.0000 0.0000 42.4265 22.5714 12.6884 -0.4598 4.3497 -12.0626 -3.6471 -20.8480 -47.4305 -1.4587 -7.6335 21.6063 4.2031 2.6856 4.6439 1.5608 3.5033 -10.3597 -1.1058 0.9792 -13.7616 1.5848 6.7913 -11.2746 1.8277 4.3326 42.8544 0.7674 0.5154 17.7640 -0.0000 0.0000 0.0000 -76.8636 16.9066 -5.0554 104.8159 -59.1541 -72.7945 -0.0000 0.0000 -60.3490 23.3148 28.8319 11.7409 -7.1250 0.0000 -0.0000 -8.7799 60.7062 -3.3763 -0.0000 0.0000 0.0000 74.1822 -22.8588 23.4486 -84.0882 59.8675 -54.8825 0.0000 -0.0000 -63.0195 -18.8784 -11.7423 3.9809 7.1250 -0.0000 -0.0000 7.4661 -42.2499 0.5097
0.00 0.00 0.00 -173.3500 -13.0893 -170.8720 0.0000 0.0000 0.0000 1.0377 -35.3265 -22.9676 1.0922 6.6415 18.6576 0.1173 3.3574 -8.5965 13.6174 -18.9939 -71.0327 0.0000 0.0000 0.0000 43.3898 22.1263 13.0362 -0.6378 5.1097 -14.2216 -3.2989 -21.9217 -46.9288 -1.3103 -7.2509 20.4608 4.9694 2.7271 4.4949 1.6171 3.6230 -10.4316 -1.4776 0.9486 -13.7097 1.4982 6.6977 -10.6086 1.4964 4.3579 42.5057 0.6162 0.4788 17.3909 0.0000 -0.0000 0.0000 -79.4213 17.2190 -1.3372 65.1322 -57.5293 -38.6425 -0.0000 0.0000 -52.6691 23.4426 29.2754 11.9719 -7.1250 0.0000 -0.0000 -8.8891 61.1890 -3.5207 0.0000 -0.0000 0.0000 74.9939 -19.9335 29.3648 -43.9018 50.2190 -21.3914 0.0000 -0.0000 -54.2435 -22.4727 -17.5909 7.1258 7.1250 -0.0000 -0.0000 5.3927 -48.8417 -0.5123
0.00 0.00 0.00 -170.9310 -12.2595 -170.9780 0.0000 0.0000 0.0000 5.7196 -31.5134 -32.0510 2.5820 9.9855 28.9299 0.2446 -0.3820 -9.2132 13.5361 -18.9673 -70.7827 0.0000 0.0000 0.0000 44.8530 22.8422 12.3279 -0.6890 5.3065 -14.7850 -3.0933 -21.6890 -45.9539 -1.3244 -7.2882 20.5719 7.2537 3.2423 5.5266 2.2794 4.7601 -10.0405 -2.2301 1.3001 -13.7340 1.3127 6.3583 -10.3410 0.0806 4.7546 41.3505 0.0972 0.5463 16.7129 0.0000 0.0000 0.0000 -83.6154 16.6557 7.5528 17.3167 -27.2734 -4.2314 -0.0000 0.0000 -14.3144 13.9881 36.8358 8.4941 -7.1250 0.0000 -0.0000 -26.3136 65.8334 -13.6498 0.0000 0.0000 0.0000 75.6439 -15.1673 47.2054 -9.8841 16.5581 -1.4417 0.0000 -0.0000 -23.5913 -13.4960 -28.7439 6.5838 7.1250 -0.0000 -0.0000 19.3576 -58.3416 -6.4735
0.00 0.00 0.00 -168.8160 -10.3851 -172.4380 0.0000 0.0000 0.0000 7.9068 -29.7955 -33.3499 3.4027 11.3201 33.3672 0.3315 -0.8557 -10.6076 13.4960 -18.9540 -70.6593 0.0000 0.0000 0.0000 46.3606 23.5755 12.9110 -0.5978 4.9495 -13.7645 -3.0151 -21.0630 -45.1457 -1.2848 -7.1828 20.2580 9.3182 3.5566 7.7441 2.8278 5.8229 -9.0121 -3.0624 1.6867 -13.7116 1.3031 6.2264 -11.0109 -0.3064 5.0489 40.3233 0.0281 0.7559 16.3371 0.0000 -0.0000 0.0000 -88.2463 20.8478 7.4844 8.4641 -14.3024 -1.0639 -0.0000 -0.0000 26.8154 -9.9667 32.7061 -5.4240 -7.1250 0.0000 -0.0000 -45.3554 56.6509 -15.0737 0.0000 -0.0000 0.0000 75.1876 -18.7679 51.4410 -6.2813 10.7305 -0.5905 0.0000 0.0000 2.7071 1.3376 -24.5851 -0.5566 7.1250 -0.0000 -0.0000 30.9556 -51.7676 -5.6071
0.00 0.00 0.00 -169.2010 -6.7830 -171.6890 0.0000 0.0000 0.0000 5.3113 -26.2461 -31.3298 4.0761 12.2609 36.6614 1.2996 9.6244 -26.9709 11.5547 -18.1960 -64.5702 0.0000 0.0000 0.0000 45.8996 24.9574 13.5836 -0.5932 4.9308 -13.7112 -2.9616 -20.8421 -44.7542 -0.6894 -5.3080 14.7891 6.3818 3.6569 6.7119 1.1386 5.3939 -8.7983 -3.1823 1.7885 -12.8952 6.0425 8.4888 -9.5531 0.8669 5.8909 42.5377 -0.2276 1.7295 17.4871 0.0000 0.0000 0.0000 -80.7242 25.7799 -22.4588 10.6126 -17.6920 -1.6563 -0.0000 -0.0000 26.7769 22.5638 31.3437 12.1964 -7.1250 0.0000 -0.0000 -11.2422 63.0442 -4.9571 0.0000 0.0000 0.0000 74.8816 -26.9237 35.8390 -19.2759 29.7601 -5.1671 0.0000 -0.0000 -25.2491 -20.5680 -18.1776 6.6767 7.1250 -0.0000 -0.0000 7.3820 -49.1640 -0.7618
0.00 0.00 0.00 -167.6840 0.0053 -174.0530 0.0000 0.0000 0.0000 1.9540 -12.1165 -17.3837 4.4779 12.7706 38.5157 1.7014 1.5410 -25.2513 13.1236 -18.8263 -69.5090 0.0000 0.0000 0.0000 47.4067 26.2223 19.1730 -0.5883 4.9109 -13.6547 -2.6746 -19.9224 -42.8157 -1.2556 -7.1036 20.0227 7.9460 3.2137 7.9295 1.7920 6.4581 -8.7301 -3.7318 2.6733 -13.4947 8.0696 9.2732 -11.4685 -0.3423 6.4369 44.2640 -1.0510 1.9135 19.3551 0.0000 0.0000 0.0000 -74.9066 9.0321 5.6604 32.5936 -43.0154 -13.1440 -0.0000 0.0000 -19.0161 26.2572 36.4640 16.3400 -7.1250 0.0000 -0.0000 -11.0450 69.1769 -6.4255 0.0000 0.0000 0.0000 68.9634 -8.6987 28.6152 -26.7879 37.9762 -9.3683 0.0000 -0.0000 -22.1378 -21.0738 -20.2290 7.5894 7.1250 -0.0000 -0.0000 7.4953 -51.3783 -1.1832
0.00 0.00 0.00 -172.1220 1.0885 -173.7430 0.0000 0.0000 0.0000 -8.9487 -18.4396 -4.2956 1.6332 8.0563 22.8852 1.9966 5.8426 -29.3006 12.3967 -18.5534 -67.2408 0.0000 0.0000 0.0000 41.4999 27.1231 16.3032 -0.1900 2.8073 -7.7426 -2.9062 -19.1767 -43.2087 -1.0652 -6.5616 18.4229 4.6121 3.0351 7.2571 0.7148 5.5466 -9.1112 -2.8857 2.4760 -13.7471 7.0994 8.1341 -13.2488 -0.3023 4.7620 44.4229 -1.1751 1.0686 19.7914 0.0000 0.0000 0.0000 -70.8091 3.1278 9.3926 69.9296 -58.4218 -42.7106 -0.0000 0.0000 -22.9830 29.3771 32.7263 16.9273 -7.1250 0.0000 -0.0000 -3.7327 66.3518 -1.9231 0.0000 0.0000 0.0000 65.6709 -6.9285 20.4522 -56.5413 55.3156 -31.4797 0.0000 -0.0000 -23.3745 -24.0172 -19.1947 8.3346 7.1250 -0.0000 -0.0000 4.2786 -50.7944 -0.6118
0.00 0.00 0.00 -174.4630 1.7234 -173.6060 0.0000 0.0000 0.0000 -14.1103 -20.0795 0.6757 0.8798 5.9797 16.7255 1.7538 9.0286 -29.6629 12.1317 -18.4457 -66.4055 0.0000 0.0000 0.0000 35.8677 23.9494 10.7258 -0.0384 1.2643 -3.4763 -2.3643 -16.6111 -38.7277 -0.6906 -5.3128 14.8029 2.7428 3.0986 7.2186 0.0180 5.2434 -9.0774 -2.5563 2.4576 -13.7746 7.5313 8.1300 -13.1587 -0.9488 5.3686 43.1034 -1.3810 1.4260 18.9810 0.0000 -0.0000 0.0000 -68.3704 0.8720 8.8362 91.6982 -59.9891 -61.4707 -0.0000 0.0000 -23.8754 30.4828 32.0717 17.3570 -7.1250 0.0000 -0.0000 -1.8573 65.9922 -0.9411 0.0000 -0.0000 0.0000 64.6029 -6.8404 16.9114 -77.4575 59.3971 -49.1598 0.0000 -0.0000 -23.3931 -24.2958 -18.2797 8.0591 7.1250 -0.0000 -0.0000 3.7805 -49.8639 -0.4539
0.00 0.00 0.00 -176.5220 2.3159 -173.4200 0.0000 0.0000 0.0000 -18.9315 -21.7560 5.7455 0.3483 3.7918 10.4916 1.5893 11.7924 -30.6174 11.7083 -18.2646 -65.0612 0.0000 0.0000 0.0000 29.9185 17.1022 2.7419 -0.0144 -0.7747 2.1290 -1.7851 -11.4004 -31.5427 -0.2092 -2.9447 8.1248 1.2644 3.1164 7.2383 -0.6291 4.9679 -9.0557 -2.3980 2.4253 -13.8290 8.3195 8.2401 -12.7872 -1.7838 6.1254 41.5663 -1.7009 1.8831 18.0715 0.0000 0.0000 0.0000 -65.4799 -1.2649 7.1480 112.2506 -58.0441 -79.1430 -0.0000 0.0000 -24.9400 31.9219 31.2709 17.9201 -7.1250 0.0000 -0.0000 0.5012 65.5637 0.2490 0.0000 0.0000 0.0000 63.5185 -6.8582 13.4497 -101.3756 59.5053 -69.8352 0.0000 -0.0000 -24.6308 -25.6510 -17.0628 8.0204 7.1250 -0.0000 -0.0000 2.1959 -48.7703 -0.2043
0.00 0.00 0.00 -179.3870 2.9805 -172.7320 0.0000 0.0000 0.0000 -26.7997 -26.6520 13.9699 0.0146 0.7807 2.1455 2.0421 15.5492 -36.2427 10.6207 -17.7444 -61.5434 0.0000 0.0000 0.0000 22.8773 10.2562 -7.4732 -0.4195 -4.1571 11.5192 -1.6779 -4.8099 -26.5966 -0.0024 0.3164 -0.8694 -0.3387 2.9210 6.9869 -1.5138 4.4448 -9.3412 -2.3919 2.3045 -14.0764 9.5426 8.5627 -11.4198 -3.0314 7.3205 39.3940 -2.1978 2.5424 16.7292 0.0000 -0.0000 0.0000 -60.4766 -3.9236 2.3313 134.3569 -51.0797 -97.2620 -0.0000 0.0000 -28.0983 34.8892 30.3107 19.3887 -7.1250 0.0000 -0.0000 4.9664 65.3932 2.4502 0.0000 -0.0000 0.0000 61.7905 -6.3241 8.8325 -130.0062 52.9930 -93.8308 0.0000 -0.0000 -28.4459 -31.1562 -13.8536 8.2370 7.1250 -0.0000 -0.0000 -3.5298 -46.0258 0.0895
0.00 0.00 0.00 -185.3470 2.7674 -170.9980 0.0000 0.0000 0.0000 -44.2675 -39.7218 28.2382 0.0460 -1.3848 -3.8082 5.2199 19.8528 -52.3474 9.1153 -16.8813 -56.4880 0.0000 0.0000 0.0000 12.1405 5.4191 -15.2220 -0.9860 -6.3204 17.7170 -1.8714 -0.9074 -26.2166 -0.1325 2.3466 -6.4646 -4.0781 2.0646 5.6138 -3.1339 2.9336 -10.0862 -1.8176 2.0019 -14.2606 10.8939 9.1179 -8.4738 -4.4225 8.8473 36.9434 -2.7586 3.3179 15.0884 0.0000 -0.0000 0.0000 -51.7093 -7.9808 -9.7682 151.9180 -39.1916 -109.8246 -0.0000 0.0000 -33.6034 37.8038 29.8169 21.0938 -7.1250 0.0000 -0.0000 9.2626 65.7120 4.6507 0.0000 -0.0000 0.0000 59.1161 -3.8325 0.3000 -152.4044 38.7413 -110.1304 0.0000 -0.0000 -27.7284 -34.9795 -7.4636 5.1931 7.1250 -0.0000 -0.0000 -7.0884 -38.9713 -1.0591
0.00 0.00 0.00 -186.5750 0.5499 -169.5480 0.0000 0.0000 0.0000 -44.2261 -35.7476 22.3782 0.1031 -2.0708 -5.7013 1.7635 21.1757 -39.8345 9.4225 -17.0720 -57.5400 0.0000 0.0000 0.0000 6.3191 1.5800 -19.4288 -1.4665 -7.6529 21.6648 -1.5802 -1.5028 -24.3414 -0.6201 5.0394 -14.0209 -2.6219 3.6363 5.2138 -3.1899 3.3595 -10.0700 -2.5385 1.2644 -13.9231 11.7258 8.5926 -6.8398 -3.3669 7.7196 36.5132 -2.6577 3.1530 14.4081 -0.0000 -0.0000 0.0000 -39.2969 -6.4519 -25.4828 160.0023 -30.6396 -114.4698 -0.0000 0.0000 -37.9553 36.1929 26.8558 18.2909 -7.1250 0.0000 -0.0000 7.5955 61.9275 3.1375 -0.0000 -0.0000 0.0000 54.3404 -6.3734 -12.9845 -161.1128 29.2782 -115.0245 0.0000 -0.0000 -24.6220 -41.6298 -3.0449 2.7030 7.1250 -0.0000 -0.0000 -12.2832 -33.8529 -3.4252
